<mxfile host="app.diagrams.net" modified="2023-07-10T07:20:47.231Z" agent="Mozilla/5.0 (Windows NT 10.0; Win64; x64) AppleWebKit/537.36 (KHTML, like Gecko) Chrome/114.0.0.0 Safari/537.36" etag="qjAS2HCj4TD5NrPril95" version="21.6.1" type="github">
  <diagram name="Page-1" id="QdCy8k0QCse23ssXacSh">
    <mxGraphModel dx="1050" dy="587" grid="1" gridSize="10" guides="1" tooltips="1" connect="1" arrows="1" fold="1" page="1" pageScale="1" pageWidth="1200" pageHeight="1920" math="0" shadow="0">
      <root>
        <mxCell id="0" />
        <mxCell id="1" parent="0" />
        <mxCell id="Jkfbep3SMitjDdXwMNfX-2" value="CONTACT" style="rounded=0;whiteSpace=wrap;html=1;" parent="1" vertex="1">
          <mxGeometry x="840" y="230" width="120" height="60" as="geometry" />
        </mxCell>
        <mxCell id="Jkfbep3SMitjDdXwMNfX-3" value="about" style="ellipse;whiteSpace=wrap;html=1;" parent="1" vertex="1">
          <mxGeometry x="360" y="210" width="80" height="40" as="geometry" />
        </mxCell>
        <mxCell id="Jkfbep3SMitjDdXwMNfX-4" value="&lt;u&gt;id&lt;/u&gt;" style="ellipse;whiteSpace=wrap;html=1;" parent="1" vertex="1">
          <mxGeometry y="160" width="80" height="40" as="geometry" />
        </mxCell>
        <mxCell id="Jkfbep3SMitjDdXwMNfX-5" value="Image" style="ellipse;whiteSpace=wrap;html=1;" parent="1" vertex="1">
          <mxGeometry x="360" y="150" width="80" height="40" as="geometry" />
        </mxCell>
        <mxCell id="Jkfbep3SMitjDdXwMNfX-6" value="Password" style="ellipse;whiteSpace=wrap;html=1;" parent="1" vertex="1">
          <mxGeometry x="280" y="90" width="80" height="40" as="geometry" />
        </mxCell>
        <mxCell id="Jkfbep3SMitjDdXwMNfX-7" value="Email" style="ellipse;whiteSpace=wrap;html=1;" parent="1" vertex="1">
          <mxGeometry x="170" y="80" width="80" height="40" as="geometry" />
        </mxCell>
        <mxCell id="Jkfbep3SMitjDdXwMNfX-8" value="Name" style="ellipse;whiteSpace=wrap;html=1;" parent="1" vertex="1">
          <mxGeometry x="80" y="110" width="80" height="40" as="geometry" />
        </mxCell>
        <mxCell id="Jkfbep3SMitjDdXwMNfX-9" value="role" style="ellipse;whiteSpace=wrap;html=1;" parent="1" vertex="1">
          <mxGeometry y="220" width="80" height="40" as="geometry" />
        </mxCell>
        <mxCell id="Jkfbep3SMitjDdXwMNfX-10" value="enabled" style="ellipse;whiteSpace=wrap;html=1;" parent="1" vertex="1">
          <mxGeometry x="30" y="280" width="80" height="40" as="geometry" />
        </mxCell>
        <mxCell id="Jkfbep3SMitjDdXwMNfX-11" value="" style="endArrow=none;html=1;rounded=0;entryX=0.725;entryY=0.945;entryDx=0;entryDy=0;entryPerimeter=0;exitX=0.25;exitY=0;exitDx=0;exitDy=0;" parent="1" source="Jkfbep3SMitjDdXwMNfX-1" target="Jkfbep3SMitjDdXwMNfX-8" edge="1">
          <mxGeometry width="50" height="50" relative="1" as="geometry">
            <mxPoint x="390" y="330" as="sourcePoint" />
            <mxPoint x="440" y="280" as="targetPoint" />
          </mxGeometry>
        </mxCell>
        <mxCell id="Jkfbep3SMitjDdXwMNfX-12" value="" style="endArrow=none;html=1;rounded=0;entryX=0;entryY=0.5;entryDx=0;entryDy=0;exitX=0.75;exitY=0;exitDx=0;exitDy=0;" parent="1" source="Jkfbep3SMitjDdXwMNfX-1" target="Jkfbep3SMitjDdXwMNfX-5" edge="1">
          <mxGeometry width="50" height="50" relative="1" as="geometry">
            <mxPoint x="200" y="240" as="sourcePoint" />
            <mxPoint x="148" y="158" as="targetPoint" />
          </mxGeometry>
        </mxCell>
        <mxCell id="Jkfbep3SMitjDdXwMNfX-13" value="" style="endArrow=none;html=1;rounded=0;entryX=0.255;entryY=1.025;entryDx=0;entryDy=0;entryPerimeter=0;exitX=0.443;exitY=0.043;exitDx=0;exitDy=0;exitPerimeter=0;" parent="1" source="Jkfbep3SMitjDdXwMNfX-1" target="Jkfbep3SMitjDdXwMNfX-6" edge="1">
          <mxGeometry width="50" height="50" relative="1" as="geometry">
            <mxPoint x="210" y="250" as="sourcePoint" />
            <mxPoint x="158" y="168" as="targetPoint" />
          </mxGeometry>
        </mxCell>
        <mxCell id="Jkfbep3SMitjDdXwMNfX-14" value="" style="endArrow=none;html=1;rounded=0;entryX=0.5;entryY=1;entryDx=0;entryDy=0;exitX=0.383;exitY=-0.01;exitDx=0;exitDy=0;exitPerimeter=0;" parent="1" source="Jkfbep3SMitjDdXwMNfX-1" target="Jkfbep3SMitjDdXwMNfX-7" edge="1">
          <mxGeometry width="50" height="50" relative="1" as="geometry">
            <mxPoint x="220" y="260" as="sourcePoint" />
            <mxPoint x="168" y="178" as="targetPoint" />
          </mxGeometry>
        </mxCell>
        <mxCell id="Jkfbep3SMitjDdXwMNfX-16" value="" style="endArrow=none;html=1;rounded=0;entryX=0.87;entryY=0.017;entryDx=0;entryDy=0;exitX=0;exitY=0.5;exitDx=0;exitDy=0;entryPerimeter=0;" parent="1" source="Jkfbep3SMitjDdXwMNfX-3" target="Jkfbep3SMitjDdXwMNfX-1" edge="1">
          <mxGeometry width="50" height="50" relative="1" as="geometry">
            <mxPoint x="200" y="240" as="sourcePoint" />
            <mxPoint x="360" y="170" as="targetPoint" />
          </mxGeometry>
        </mxCell>
        <mxCell id="Jkfbep3SMitjDdXwMNfX-1" value="USER" style="rounded=0;whiteSpace=wrap;html=1;" parent="1" vertex="1">
          <mxGeometry x="160" y="240" width="120" height="60" as="geometry" />
        </mxCell>
        <mxCell id="Jkfbep3SMitjDdXwMNfX-17" value="" style="endArrow=none;html=1;rounded=0;entryX=1;entryY=1;entryDx=0;entryDy=0;exitX=0;exitY=0;exitDx=0;exitDy=0;" parent="1" source="Jkfbep3SMitjDdXwMNfX-1" target="Jkfbep3SMitjDdXwMNfX-4" edge="1">
          <mxGeometry width="50" height="50" relative="1" as="geometry">
            <mxPoint x="390" y="330" as="sourcePoint" />
            <mxPoint x="440" y="280" as="targetPoint" />
          </mxGeometry>
        </mxCell>
        <mxCell id="Jkfbep3SMitjDdXwMNfX-18" value="" style="endArrow=none;html=1;rounded=0;entryX=1;entryY=0.5;entryDx=0;entryDy=0;exitX=0;exitY=0.5;exitDx=0;exitDy=0;" parent="1" source="Jkfbep3SMitjDdXwMNfX-1" target="Jkfbep3SMitjDdXwMNfX-9" edge="1">
          <mxGeometry width="50" height="50" relative="1" as="geometry">
            <mxPoint x="390" y="330" as="sourcePoint" />
            <mxPoint x="440" y="280" as="targetPoint" />
          </mxGeometry>
        </mxCell>
        <mxCell id="Jkfbep3SMitjDdXwMNfX-19" value="" style="endArrow=none;html=1;rounded=0;entryX=1;entryY=0.5;entryDx=0;entryDy=0;exitX=0;exitY=0.75;exitDx=0;exitDy=0;" parent="1" source="Jkfbep3SMitjDdXwMNfX-1" target="Jkfbep3SMitjDdXwMNfX-10" edge="1">
          <mxGeometry width="50" height="50" relative="1" as="geometry">
            <mxPoint x="390" y="330" as="sourcePoint" />
            <mxPoint x="440" y="280" as="targetPoint" />
          </mxGeometry>
        </mxCell>
        <mxCell id="Jkfbep3SMitjDdXwMNfX-20" value="description" style="ellipse;whiteSpace=wrap;html=1;" parent="1" vertex="1">
          <mxGeometry x="680" y="120" width="80" height="40" as="geometry" />
        </mxCell>
        <mxCell id="Jkfbep3SMitjDdXwMNfX-21" value="phone" style="ellipse;whiteSpace=wrap;html=1;" parent="1" vertex="1">
          <mxGeometry x="650" y="180" width="80" height="40" as="geometry" />
        </mxCell>
        <mxCell id="Jkfbep3SMitjDdXwMNfX-22" value="image" style="ellipse;whiteSpace=wrap;html=1;" parent="1" vertex="1">
          <mxGeometry x="1100" y="200" width="80" height="40" as="geometry" />
        </mxCell>
        <mxCell id="Jkfbep3SMitjDdXwMNfX-23" value="work" style="ellipse;whiteSpace=wrap;html=1;" parent="1" vertex="1">
          <mxGeometry x="1000" y="120" width="80" height="40" as="geometry" />
        </mxCell>
        <mxCell id="Jkfbep3SMitjDdXwMNfX-24" value="nickName" style="ellipse;whiteSpace=wrap;html=1;" parent="1" vertex="1">
          <mxGeometry x="940" y="80" width="80" height="40" as="geometry" />
        </mxCell>
        <mxCell id="Jkfbep3SMitjDdXwMNfX-25" value="Name" style="ellipse;whiteSpace=wrap;html=1;" parent="1" vertex="1">
          <mxGeometry x="850" y="60" width="80" height="40" as="geometry" />
        </mxCell>
        <mxCell id="Jkfbep3SMitjDdXwMNfX-26" value="cid" style="ellipse;whiteSpace=wrap;html=1;" parent="1" vertex="1">
          <mxGeometry x="760" y="80" width="80" height="40" as="geometry" />
        </mxCell>
        <mxCell id="Jkfbep3SMitjDdXwMNfX-27" value="email" style="ellipse;whiteSpace=wrap;html=1;" parent="1" vertex="1">
          <mxGeometry x="1070" y="150" width="80" height="40" as="geometry" />
        </mxCell>
        <mxCell id="Jkfbep3SMitjDdXwMNfX-29" value="" style="endArrow=none;html=1;rounded=0;exitX=1;exitY=1;exitDx=0;exitDy=0;entryX=0;entryY=0.25;entryDx=0;entryDy=0;" parent="1" source="Jkfbep3SMitjDdXwMNfX-21" target="Jkfbep3SMitjDdXwMNfX-2" edge="1">
          <mxGeometry width="50" height="50" relative="1" as="geometry">
            <mxPoint x="720" y="296" as="sourcePoint" />
            <mxPoint x="610" y="350" as="targetPoint" />
          </mxGeometry>
        </mxCell>
        <mxCell id="Jkfbep3SMitjDdXwMNfX-31" value="" style="endArrow=none;html=1;rounded=0;exitX=1;exitY=1;exitDx=0;exitDy=0;entryX=0;entryY=0;entryDx=0;entryDy=0;" parent="1" source="Jkfbep3SMitjDdXwMNfX-20" target="Jkfbep3SMitjDdXwMNfX-2" edge="1">
          <mxGeometry width="50" height="50" relative="1" as="geometry">
            <mxPoint x="730" y="306" as="sourcePoint" />
            <mxPoint x="620" y="360" as="targetPoint" />
          </mxGeometry>
        </mxCell>
        <mxCell id="Jkfbep3SMitjDdXwMNfX-32" value="" style="endArrow=none;html=1;rounded=0;exitX=1;exitY=1;exitDx=0;exitDy=0;entryX=0.097;entryY=-0.003;entryDx=0;entryDy=0;entryPerimeter=0;" parent="1" source="Jkfbep3SMitjDdXwMNfX-26" target="Jkfbep3SMitjDdXwMNfX-2" edge="1">
          <mxGeometry width="50" height="50" relative="1" as="geometry">
            <mxPoint x="740" y="316" as="sourcePoint" />
            <mxPoint x="630" y="370" as="targetPoint" />
          </mxGeometry>
        </mxCell>
        <mxCell id="Jkfbep3SMitjDdXwMNfX-33" value="" style="endArrow=none;html=1;rounded=0;exitX=0.39;exitY=1.015;exitDx=0;exitDy=0;exitPerimeter=0;entryX=0.25;entryY=0;entryDx=0;entryDy=0;" parent="1" source="Jkfbep3SMitjDdXwMNfX-25" target="Jkfbep3SMitjDdXwMNfX-2" edge="1">
          <mxGeometry width="50" height="50" relative="1" as="geometry">
            <mxPoint x="750" y="326" as="sourcePoint" />
            <mxPoint x="640" y="380" as="targetPoint" />
          </mxGeometry>
        </mxCell>
        <mxCell id="Jkfbep3SMitjDdXwMNfX-34" value="" style="endArrow=none;html=1;rounded=0;exitX=0;exitY=1;exitDx=0;exitDy=0;entryX=0.33;entryY=0.023;entryDx=0;entryDy=0;entryPerimeter=0;" parent="1" source="Jkfbep3SMitjDdXwMNfX-24" target="Jkfbep3SMitjDdXwMNfX-2" edge="1">
          <mxGeometry width="50" height="50" relative="1" as="geometry">
            <mxPoint x="760" y="336" as="sourcePoint" />
            <mxPoint x="650" y="390" as="targetPoint" />
          </mxGeometry>
        </mxCell>
        <mxCell id="Jkfbep3SMitjDdXwMNfX-35" value="" style="endArrow=none;html=1;rounded=0;exitX=0;exitY=1;exitDx=0;exitDy=0;entryX=0.5;entryY=0;entryDx=0;entryDy=0;" parent="1" source="Jkfbep3SMitjDdXwMNfX-23" target="Jkfbep3SMitjDdXwMNfX-2" edge="1">
          <mxGeometry width="50" height="50" relative="1" as="geometry">
            <mxPoint x="770" y="346" as="sourcePoint" />
            <mxPoint x="660" y="400" as="targetPoint" />
          </mxGeometry>
        </mxCell>
        <mxCell id="Jkfbep3SMitjDdXwMNfX-36" value="" style="endArrow=none;html=1;rounded=0;exitX=0;exitY=1;exitDx=0;exitDy=0;entryX=0.75;entryY=0;entryDx=0;entryDy=0;" parent="1" source="Jkfbep3SMitjDdXwMNfX-27" target="Jkfbep3SMitjDdXwMNfX-2" edge="1">
          <mxGeometry width="50" height="50" relative="1" as="geometry">
            <mxPoint x="780" y="356" as="sourcePoint" />
            <mxPoint x="670" y="410" as="targetPoint" />
          </mxGeometry>
        </mxCell>
        <mxCell id="Jkfbep3SMitjDdXwMNfX-37" value="" style="endArrow=none;html=1;rounded=0;exitX=0;exitY=0.5;exitDx=0;exitDy=0;entryX=1;entryY=0.25;entryDx=0;entryDy=0;" parent="1" source="Jkfbep3SMitjDdXwMNfX-22" target="Jkfbep3SMitjDdXwMNfX-2" edge="1">
          <mxGeometry width="50" height="50" relative="1" as="geometry">
            <mxPoint x="790" y="366" as="sourcePoint" />
            <mxPoint x="680" y="420" as="targetPoint" />
          </mxGeometry>
        </mxCell>
        <mxCell id="Jkfbep3SMitjDdXwMNfX-38" value="has" style="rhombus;whiteSpace=wrap;html=1;" parent="1" vertex="1">
          <mxGeometry x="490" y="360" width="80" height="80" as="geometry" />
        </mxCell>
        <mxCell id="Jkfbep3SMitjDdXwMNfX-39" value="" style="endArrow=none;html=1;rounded=0;entryX=0;entryY=1;entryDx=0;entryDy=0;exitX=1;exitY=0.5;exitDx=0;exitDy=0;" parent="1" source="Jkfbep3SMitjDdXwMNfX-38" target="Jkfbep3SMitjDdXwMNfX-2" edge="1">
          <mxGeometry width="50" height="50" relative="1" as="geometry">
            <mxPoint x="490" y="330" as="sourcePoint" />
            <mxPoint x="540" y="280" as="targetPoint" />
          </mxGeometry>
        </mxCell>
        <mxCell id="Jkfbep3SMitjDdXwMNfX-40" value="" style="endArrow=none;html=1;rounded=0;entryX=1;entryY=1;entryDx=0;entryDy=0;exitX=0;exitY=0.5;exitDx=0;exitDy=0;" parent="1" source="Jkfbep3SMitjDdXwMNfX-38" target="Jkfbep3SMitjDdXwMNfX-1" edge="1">
          <mxGeometry width="50" height="50" relative="1" as="geometry">
            <mxPoint x="490" y="330" as="sourcePoint" />
            <mxPoint x="540" y="280" as="targetPoint" />
          </mxGeometry>
        </mxCell>
        <mxCell id="Jkfbep3SMitjDdXwMNfX-41" value="1" style="text;html=1;align=center;verticalAlign=middle;resizable=0;points=[];autosize=1;strokeColor=none;fillColor=none;" parent="1" vertex="1">
          <mxGeometry x="380" y="320" width="30" height="30" as="geometry" />
        </mxCell>
        <mxCell id="Jkfbep3SMitjDdXwMNfX-42" value="n" style="text;html=1;align=center;verticalAlign=middle;resizable=0;points=[];autosize=1;strokeColor=none;fillColor=none;" parent="1" vertex="1">
          <mxGeometry x="630" y="330" width="30" height="30" as="geometry" />
        </mxCell>
      </root>
    </mxGraphModel>
  </diagram>
</mxfile>
